<svg width="282.225" height="471.732" viewBox="0 0 282.225 471.732">
    <defs>
        <clipPath id="clip-path">
            <path id="Path_27" data-name="Path 27"
                d="M41.914,0c23.105-.056,41.8,13.256,41.758,29.734S64.863,59.615,41.758,59.672-.043,46.415,0,29.937,18.808.056,41.914,0Z"
                transform="matrix(-0.999, -0.035, 0.035, -0.999, 83.621, 62.555)" fill="none" stroke="#fff"
                stroke-width="1" />
        </clipPath>
        <clipPath id="clip-path-3">
            <path id="Path_27-2" data-name="Path 27"
                d="M61.832,0c34.085-.083,61.665,19.556,61.6,43.864S95.687,87.946,61.6,88.028-.063,68.472,0,44.164,27.746.083,61.832,0Z"
                transform="matrix(-0.999, -0.035, 0.035, -0.999, 123.358, 92.283)" fill="none" stroke="#fff"
                stroke-width="4" />
        </clipPath>
    </defs>
    <g id="Group_41" data-name="Group 41" transform="translate(507.296 -1436.481)">
        <g id="Group_39" data-name="Group 39" transform="translate(-513 1436)">
            <g id="Group_19" data-name="Group 19" transform="matrix(1, -0.017, 0.017, 1, 0, 63.656)">
                <g id="Group_16" data-name="Group 16" transform="matrix(1, 0.017, -0.017, 1, 7.081, 0)">
                    <g id="Path_24" data-name="Path 24"
                        transform="matrix(-0.966, 0.259, -0.259, -0.966, 232.104, 384.23)" fill="none">
                        <path
                            d="M26.458,0C40.813-.227,52.244,13.286,51.989,30.185S39.891,60.968,25.535,61.2-.251,47.914,0,31.016,12.1.232,26.458,0Z"
                            stroke="none" />
                        <path
                            d="M 26.81811904907227 5.000007629394531 C 26.72495651245117 5.000007629394531 26.63124465942383 5.000759124755859 26.53800582885742 5.002246856689453 C 21.05145645141602 5.089931488037109 15.79874420166016 7.753822326660156 11.74749374389648 12.50320816040039 C 9.698570251464844 14.90522003173828 8.071758270263672 17.70250701904297 6.912242889404297 20.8173713684082 C 5.699432373046875 24.07542037963867 5.057270050048828 27.53193283081055 5.003620147705078 31.09089660644531 C 4.889381408691406 38.66655731201172 7.526256561279297 45.7548713684082 12.23811721801758 50.53830718994141 C 14.02541732788086 52.35276031494141 16.03759384155273 53.7617073059082 18.21876907348633 54.72600936889648 C 20.43138122558594 55.70421981811523 22.77195739746094 56.2002067565918 25.17546844482422 56.2002067565918 C 25.26861953735352 56.2002067565918 25.36230659484863 56.19945907592773 25.45553207397461 56.19797134399414 C 30.94208145141602 56.11028289794922 36.19478225708008 53.44638442993164 40.24603271484375 48.69698333740234 C 42.29495620727539 46.29498291015625 43.92176818847656 43.49769592285156 45.08128356933594 40.38283538818359 C 46.29410552978516 37.12478256225586 46.93625640869141 33.66827011108398 46.98991775512695 30.10932159423828 C 47.10415649414063 22.53361892700195 44.46728134155273 15.44530868530273 39.75543212890625 10.66188430786133 C 37.96814346313477 8.847434997558594 35.95597076416016 7.438495635986328 33.77480697631836 6.474197387695313 C 31.56220626831055 5.495994567871094 29.22163200378418 5.000007629394531 26.81811904907227 5.000007629394531 M 26.81811332702637 3.814697265625e-06 C 41.00428009033203 3.814697265625e-06 52.24201202392578 13.42760848999023 51.98935699462891 30.18469619750977 C 51.73455810546875 47.08305740356445 39.89074325561523 60.9678955078125 25.53543090820313 61.19733428955078 C 25.41539573669434 61.19925308227539 25.29508590698242 61.20021057128906 25.17546272277832 61.20021057128906 C 10.98929595947266 61.20021057128906 -0.24847412109375 47.77256774902344 0.004180908203125 31.0155086517334 C 0.2589683532714844 14.11713409423828 12.1027946472168 0.2323074340820313 26.45810699462891 0.0028839111328125 C 26.5781421661377 0.000965118408203125 26.69849014282227 3.814697265625e-06 26.81811332702637 3.814697265625e-06 Z"
                            stroke="none" fill="#fff" />
                    </g>
                    <path id="Path_14" data-name="Path 14" d="M198.953,300.088,0,0"
                        transform="matrix(0.985, 0.174, -0.174, 0.985, 52.11, 1.194)" fill="#fff" stroke="#fff"
                        stroke-width="3" />
                    <path id="Path_15" data-name="Path 15" d="M71.877,116.534,0,0"
                        transform="matrix(0.985, 0.174, -0.174, 0.985, 135.517, 207.035)" fill="#fff" stroke="#fff"
                        stroke-width="3" />
                    <path id="Path_16" data-name="Path 16"
                        d="M127.2,202.777c-.751-.01-3.781-4.339-8.747-6.814s-16.308,11.156-19.779,1.062S26.835,48.22,0,0"
                        transform="matrix(0.985, 0.174, -0.174, 0.985, 51.746, 0)" fill="#fff" stroke="#fff"
                        stroke-width="3" />
                    <path id="Path_17" data-name="Path 17"
                        d="M.107,7.623A27.6,27.6,0,0,0,2.455,5.349,16.152,16.152,0,0,0,4.21,3.019,22.774,22.774,0,0,0,5.844,0L7.225.75c3.179,2.132-3.919.4,1.42,7.439,5.741,7.567,17,15.106,23.358,15.526s3.863,6.177-2.625,2.925S0,7.354,0,7.354"
                        transform="matrix(0.999, -0.035, 0.035, 0.999, 217.119, 378.097)" fill="#fff" stroke="#fff"
                        stroke-width="3" />
                </g>
            </g>
            <g id="Group_20" data-name="Group 20" transform="translate(24.479 282.45)">
                <g id="Group_14" data-name="Group 14" transform="matrix(0.985, -0.174, 0.174, 0.985, 0, 19.68)">
                    <g id="Path_23" data-name="Path 23" transform="translate(32.547 67.252) rotate(19)" fill="none">
                        <path
                            d="M34.43,0c19.006-.007,34.405,22.367,34.4,49.973s-15.424,49.99-34.43,50S-.01,77.6,0,50,15.424.007,34.43,0Z"
                            stroke="none" />
                        <path
                            d="M 34.4317741394043 4.999992370605469 C 30.72346496582031 5.001266479492188 27.09650039672852 6.075393676757813 23.65164566040039 8.192481994628906 C 20.15048217773438 10.34420776367188 16.97366333007813 13.47044372558594 14.2094841003418 17.484375 C 11.35059356689453 21.63581085205078 9.096973419189453 26.4989013671875 7.511245727539063 31.93853759765625 C 5.847084045410156 37.64726638793945 5.002174377441406 43.72337341308594 5.000011444091797 49.99810028076172 C 4.997848510742188 56.27191925048828 5.838245391845703 62.34648132324219 7.497848510742188 68.05304718017578 C 9.079135894775391 73.49024963378906 11.32837295532227 78.35063171386719 14.18310165405273 82.49915313720703 C 16.9429931640625 86.50984954833984 20.11590194702148 89.63311767578125 23.61370086669922 91.7822265625 C 27.05532073974609 93.89682769775391 30.68004608154297 94.96900939941406 34.38719177246094 94.96900939941406 L 34.3938102722168 94.96900939941406 C 38.10211944580078 94.96773529052734 41.72908401489258 93.89363098144531 45.17393493652344 91.77651977539063 C 48.67510223388672 89.62480926513672 51.85192108154297 86.49855804443359 54.6161003112793 82.48462677001953 C 57.47499084472656 78.33320617675781 59.72861099243164 73.47012329101563 61.31433868408203 68.03048706054688 C 62.97850036621094 62.32175445556641 63.82341003417969 56.24564743041992 63.8255729675293 49.97092056274414 C 63.82773590087891 43.69708251953125 62.98733901977539 37.62252044677734 61.32773590087891 31.91595458984375 C 59.74644470214844 26.47875213623047 57.49721145629883 21.61839294433594 54.64248275756836 17.4698486328125 C 51.88259124755859 13.45915222167969 48.70968246459961 10.33588409423828 45.21188354492188 8.186775207519531 C 41.770263671875 6.072174072265625 38.14553833007813 4.999992370605469 34.43839263916016 4.999992370605469 L 34.4317741394043 4.999992370605469 M 34.43838500976563 -7.62939453125e-06 C 53.44083786010742 -7.62939453125e-06 68.83509826660156 22.37032318115234 68.82557678222656 49.9726448059082 C 68.81604766845703 77.57832336425781 53.40119171142578 99.96244812011719 34.39553833007813 99.96900939941406 C 34.39321899414063 99.96900939941406 34.38951873779297 99.96900939941406 34.38719940185547 99.96900939941406 C 15.38474655151367 99.96900939941406 -0.00951385498046875 77.59867858886719 7.62939453125e-06 49.99637222290039 C 0.0095367431640625 22.39070129394531 15.42439270019531 0.00655364990234375 34.43004608154297 -7.62939453125e-06 C 34.43236541748047 -7.62939453125e-06 34.43606567382813 -7.62939453125e-06 34.43838500976563 -7.62939453125e-06 Z"
                            stroke="none" fill="#fff" />
                    </g>
                    <path id="Path_12" data-name="Path 12"
                        d="M0,73.907,48.888,0s.043,2.7,2.214,2.956,4.852-1.455,6.47-1.94"
                        transform="translate(47.765 6.018) rotate(-6)" fill="#fff" stroke="#fff" stroke-width="2" />
                    <path id="Path_13" data-name="Path 13" d="M0,79.929,42.336,0"
                        transform="translate(62.871 5.508) rotate(-6)" fill="#fff" stroke="#fff" stroke-width="2" />
                    <path id="Path_18" data-name="Path 18"
                        d="M8.813,0c-.119.475-2.37,5.371,0,9.243s7.711,3.694,9.48,6.245-.472-.571-2.4,3.961S9.68,16.748,5.719,16.6,1.142,17.879,0,18.87"
                        transform="translate(73.117 134.85)" fill="#fff" stroke="#fff" stroke-width="2" />
                </g>
            </g>
            <path id="Path_19" data-name="Path 19"
                d="M2121.844,1268.027s20.254-6.771,31.3-10.749,9.834-4.213,18.18-7.272,15.2-4.963,15.2-4.963a161.412,161.412,0,0,1,17.035-2.636c7.809-.659,7.421-.414,14.2,0s5.922-.246,12.907,1.654,8.345,2.395,15.034,5.945,6.686,4.368,11.726,8.253,4.8,3.241,8.435,7.289,3.673,4.736,6.109,8.909a33.889,33.889,0,0,1,3.636,7.781c1.367,3.594,1.6,4.5,1.836,7a38.713,38.713,0,0,1,0,9.183c-.052.553,0,3.812,0,3.812s-1.656-8.9-2.465-12.391c-.908-3.932-2.024-5.349-8.077-15.381s-11.4-12.074-11.4-12.074l2.854,5.643s2.706,7.29,2.706,7.745,3.384,7.753,3.384,7.753l3.392,6.313,2.855,3.691,2.408,2.706,1.878,2.183s2.517,6.776,3.533,10.762.192,3.25.531,5.184a5.923,5.923,0,0,0,.827,2.557c.224.455.193,1.3,1.209,1.73s1.482.244,2.854,0a6.75,6.75,0,0,0,2.631-.976,5.281,5.281,0,0,0,1.581-1.2l1.953-1.589a5.767,5.767,0,0,1,0,2.035,8.42,8.42,0,0,1-.819,2.185,16.682,16.682,0,0,1-2.111,2.706c-.3.223-1.432,1.051-1.432,1.051s-.264.207.828,1.257,5.759,4.816,5.759,4.816a80.749,80.749,0,0,0,8.052,4.816c2.882,1.328,2.668.86,5.337,2.176a54.052,54.052,0,0,1,5.337,3.086c2.6,1.544,5.04,3.087,5.04,3.087l1.059.678a13.437,13.437,0,0,1-1.059,3.227,16.709,16.709,0,0,1-2.028,3.012s-1.49.845-3.012,1.879-1.744,1.224-3.078,2.258a15.333,15.333,0,0,0-2.259,1.878c-.753.791-.96.437-.753,1.283a6.436,6.436,0,0,0,1.58,2.1l2.706,1.506a2.423,2.423,0,0,1,1.8.381,3.292,3.292,0,0,1,.6,1.953v5.569a8.506,8.506,0,0,0-.6,1.8,4.323,4.323,0,0,0,0,1.581c.038.45-.224-.266.151.222s1.356,1.731,1.356,1.731c.455.38,1.017.527,1.505,1.506a12.954,12.954,0,0,1,.813,2.477,7.4,7.4,0,0,1-.366,2.786,6.9,6.9,0,0,1-1.953,2.49l-2.632,1.879-1.505,2.334,2.63,4.311a17.547,17.547,0,0,1,3.459,2.937c1.345,1.6,3.037,6.7,2.639,8.722a10.572,10.572,0,0,1-1.432,3.466,24.968,24.968,0,0,1-2.407,3.078c-.3.232-6.248,3.608-6.248,3.608s-4.251,2.439-7.448,3.906-2.573.681-5.337,1.961a57.939,57.939,0,0,0-5.718,3.161,18.806,18.806,0,0,0-11.483,7.42s-1.018,1.463-2.806,3.85-3.914,6.1-3.914,6.1l-3.69,6.164-2.028,4.518-2.483,4.51-2.556,5.866-2.557,6.016-2.78,7.381-2.26,6.314s-4.419,30.784-5.788,44.541a63.029,63.029,0,0,0,2.33,24.436S2133.205,1278.086,2121.844,1268.027Z"
                transform="translate(-2062.679 -1204.505)" fill="#fff" stroke="#fff" stroke-width="1" />
            <g id="Mask_Group_1" data-name="Mask Group 1" transform="translate(228.434 89.901) rotate(-171)"
                clip-path="url(#clip-path)">
                <g id="Path_26" data-name="Path 26" transform="matrix(-0.999, -0.035, 0.035, -0.999, 86.96, 52.527)"
                    fill="none">
                    <path
                        d="M40.538,0c22.349-.054,40.436,11.956,40.4,26.827S62.747,53.8,40.4,53.85-.039,41.893,0,27.023,18.188.054,40.538,0Z"
                        stroke="none" />
                    <path
                        d="M 40.68831253051758 1.000003814697266 L 40.53997802734375 1.00018310546875 C 35.16839981079102 1.013214111328125 29.95790100097656 1.725193023681641 25.05322265625 3.116348266601563 C 20.33113479614258 4.455715179443359 16.09314727783203 6.363868713378906 12.45697021484375 8.787815093994141 C 8.850433349609375 11.1920051574707 6.022193908691406 13.97942733764648 4.050804138183594 17.07263565063477 C 2.035446166992188 20.23483657836914 1.009033203125 23.58359146118164 1.000053405761719 27.02590370178223 C 0.9868927001953125 32.07211303710938 3.198600769042969 36.96385955810547 7.396080017089844 41.17229461669922 C 10.89321136474609 44.67855834960938 15.68412017822266 47.6041145324707 21.25086975097656 49.63268280029297 C 27.02704620361328 51.73757171630859 33.5955696105957 52.85014724731445 40.24633407592773 52.85014724731445 L 40.39470291137695 52.84997177124023 C 45.76627731323242 52.83693695068359 50.97677993774414 52.12495803833008 55.88145446777344 50.73380279541016 C 60.60354614257813 49.39444732666016 64.84152221679688 47.48629379272461 68.47769927978516 45.06234741210938 C 72.08423614501953 42.65815734863281 74.9124755859375 39.87073516845703 76.88386535644531 36.77751541137695 C 78.89921569824219 33.61532592773438 79.92563629150391 30.26657104492188 79.93461608886719 26.82425880432129 C 79.94777679443359 21.77804946899414 77.73606872558594 16.88630294799805 73.53858947753906 12.67787170410156 C 70.04144287109375 9.171604156494141 65.25053405761719 6.246047973632813 59.68379211425781 4.217479705810547 C 53.90760040283203 2.112590789794922 47.33908081054688 1.000003814697266 40.68831253051758 1.000003814697266 M 40.68831634521484 0 C 62.96990203857422 0 80.97330474853516 11.98933410644531 80.93461608886719 26.82686996459961 C 80.89582061767578 41.69708251953125 62.74658966064453 53.79573822021484 40.39712524414063 53.84997177124023 C 40.34801483154297 53.85009002685547 40.2953987121582 53.85015487670898 40.24633407592773 53.85015487670898 C 17.9647331237793 53.85015487670898 -0.03863525390625 41.86081695556641 5.340576171875e-05 27.02329254150391 C 0.0388336181640625 12.15307998657227 18.18809127807617 0.054412841796875 40.53755569458008 0.00018310546875 C 40.58666610717773 6.103515625e-05 40.63925170898438 0 40.68831634521484 0 Z"
                        stroke="none" fill="#fff" />
                </g>
            </g>
            <g id="Mask_Group_2" data-name="Mask Group 2" transform="translate(227.755 94.188) rotate(-171)"
                clip-path="url(#clip-path)">
                <g id="Path_28" data-name="Path 28" transform="matrix(-0.999, -0.035, 0.035, -0.999, 86.96, 52.527)"
                    fill="none">
                    <path
                        d="M40.538,0c22.349-.054,40.436,11.956,40.4,26.827S62.747,53.8,40.4,53.85-.039,41.893,0,27.023,18.188.054,40.538,0Z"
                        stroke="none" />
                    <path
                        d="M 40.68831253051758 1.000003814697266 L 40.53997802734375 1.00018310546875 C 35.16839981079102 1.013214111328125 29.95790100097656 1.725193023681641 25.05322265625 3.116348266601563 C 20.33113479614258 4.455715179443359 16.09314727783203 6.363868713378906 12.45697021484375 8.787815093994141 C 8.850433349609375 11.1920051574707 6.022193908691406 13.97942733764648 4.050804138183594 17.07263565063477 C 2.035446166992188 20.23483657836914 1.009033203125 23.58359146118164 1.000053405761719 27.02590370178223 C 0.9868927001953125 32.07211303710938 3.198600769042969 36.96385955810547 7.396080017089844 41.17229461669922 C 10.89321136474609 44.67855834960938 15.68412017822266 47.6041145324707 21.25086975097656 49.63268280029297 C 27.02704620361328 51.73757171630859 33.5955696105957 52.85014724731445 40.24633407592773 52.85014724731445 L 40.39470291137695 52.84997177124023 C 45.76627731323242 52.83693695068359 50.97677993774414 52.12495803833008 55.88145446777344 50.73380279541016 C 60.60354614257813 49.39444732666016 64.84152221679688 47.48629379272461 68.47769927978516 45.06234741210938 C 72.08423614501953 42.65815734863281 74.9124755859375 39.87073516845703 76.88386535644531 36.77751541137695 C 78.89921569824219 33.61532592773438 79.92563629150391 30.26657104492188 79.93461608886719 26.82425880432129 C 79.94777679443359 21.77804946899414 77.73606872558594 16.88630294799805 73.53858947753906 12.67787170410156 C 70.04144287109375 9.171604156494141 65.25053405761719 6.246047973632813 59.68379211425781 4.217479705810547 C 53.90760040283203 2.112590789794922 47.33908081054688 1.000003814697266 40.68831253051758 1.000003814697266 M 40.68831634521484 0 C 62.96990203857422 0 80.97330474853516 11.98933410644531 80.93461608886719 26.82686996459961 C 80.89582061767578 41.69708251953125 62.74658966064453 53.79573822021484 40.39712524414063 53.84997177124023 C 40.34801483154297 53.85009002685547 40.2953987121582 53.85015487670898 40.24633407592773 53.85015487670898 C 17.9647331237793 53.85015487670898 -0.03863525390625 41.86081695556641 5.340576171875e-05 27.02329254150391 C 0.0388336181640625 12.15307998657227 18.18809127807617 0.054412841796875 40.53755569458008 0.00018310546875 C 40.58666610717773 6.103515625e-05 40.63925170898438 0 40.68831634521484 0 Z"
                        stroke="none" fill="#fff" />
                </g>
            </g>
            <g id="Mask_Group_1-2" data-name="Mask Group 1" transform="translate(259.404 110.925) rotate(-171)"
                clip-path="url(#clip-path-3)">
                <g id="Path_26-2" data-name="Path 26" transform="matrix(-0.999, -0.035, 0.035, -0.999, 128.284, 77.489)"
                    fill="none">
                    <path
                        d="M59.8,0c32.97-.08,59.652,17.638,59.594,39.575S92.565,79.36,59.594,79.44-.057,61.8,0,39.865,26.831.08,59.8,0Z"
                        stroke="none" />
                    <path
                        d="M 60.02406692504883 4.000007629394531 C 59.95492553710938 4.000007629394531 59.88076782226563 4.000091552734375 59.81132507324219 4.000251770019531 C 52.11800384521484 4.018928527832031 44.66114807128906 5.037033081054688 37.64785003662109 7.026268005371094 C 30.93490600585938 8.930313110351563 24.92234802246094 11.63483428955078 19.77716827392578 15.06471252441406 C 14.75052642822266 18.41556930541992 10.82342529296875 22.27735137939453 8.104949951171875 26.54277038574219 C 5.39312744140625 30.79777145385742 4.012046813964844 35.2835693359375 4.000068664550781 39.8756103515625 C 3.991226196289063 43.26423263549805 4.736808776855469 46.61859130859375 6.216049194335938 49.84553146362305 C 7.685287475585938 53.05059051513672 9.866264343261719 56.11547088623047 12.69842529296875 58.95503234863281 C 17.59830474853516 63.86769104003906 24.34671020507813 67.97977447509766 32.21406555175781 70.84671020507813 C 36.26882934570313 72.32429504394531 40.59786987304688 73.46501159667969 45.08094787597656 74.23715209960938 C 49.71718597412109 75.03569030761719 54.52540588378906 75.44057464599609 59.37202835083008 75.44057464599609 C 59.44116592407227 75.44057464599609 59.51532745361328 75.44049072265625 59.58476638793945 75.44033050537109 C 67.27809143066406 75.42165374755859 74.73497009277344 74.40357208251953 81.74826812744141 72.41432952880859 C 88.46120452880859 70.51029205322266 94.47378540039063 67.80577087402344 99.61896514892578 64.37586975097656 C 104.6456069946289 61.02503204345703 108.5727081298828 57.16325378417969 111.2911682128906 52.89781188964844 C 114.0029907226563 48.64282989501953 115.3840484619141 44.15701293945313 115.3960266113281 39.56497192382813 C 115.4048690795898 36.17634963989258 114.659309387207 32.82199096679688 113.1800689697266 29.59506988525391 C 111.7108306884766 26.39001083374023 109.5298690795898 23.32513046264648 106.6977081298828 20.48557281494141 C 101.7978286743164 15.57291030883789 95.04944610595703 11.46080780029297 87.18206787109375 8.593887329101563 C 83.12730407714844 7.116294860839844 78.79824829101563 5.975593566894531 74.31517028808594 5.20343017578125 C 69.67892456054688 4.404891967773438 64.87071228027344 4.000007629394531 60.02406692504883 4.000007629394531 M 60.02406692504883 0 C 92.89424896240234 0 119.4531173706055 17.68687057495117 119.3960037231445 39.57541275024414 C 119.3388290405273 61.51219177246094 92.56476593017578 79.36031341552734 59.59446716308594 79.4403076171875 C 59.52202224731445 79.44049072265625 59.44440841674805 79.44058227539063 59.37202453613281 79.44058227539063 C 26.50188446044922 79.44058227539063 -0.05698394775390625 61.75373077392578 8.392333984375e-05 39.86516952514648 C 0.05730438232421875 17.92840957641602 26.83136749267578 0.080291748046875 59.80162811279297 0.000274658203125 C 59.87407302856445 9.1552734375e-05 59.95168685913086 0 60.02406692504883 0 Z"
                        stroke="none" fill="#fff" />
                </g>
            </g>
            <g id="Mask_Group_2-2" data-name="Mask Group 2" transform="translate(258.402 117.249) rotate(-171)"
                clip-path="url(#clip-path-3)">
                <g id="Path_28-2" data-name="Path 28" transform="matrix(-0.999, -0.035, 0.035, -0.999, 128.284, 77.489)"
                    fill="none">
                    <path
                        d="M59.8,0c32.97-.08,59.652,17.638,59.594,39.575S92.565,79.36,59.594,79.44-.057,61.8,0,39.865,26.831.08,59.8,0Z"
                        stroke="none" />
                    <path
                        d="M 60.02406692504883 4.000007629394531 C 59.95492553710938 4.000007629394531 59.88076782226563 4.000091552734375 59.81132507324219 4.000251770019531 C 52.11800384521484 4.018928527832031 44.66114807128906 5.037033081054688 37.64785003662109 7.026268005371094 C 30.93490600585938 8.930313110351563 24.92234802246094 11.63483428955078 19.77716827392578 15.06471252441406 C 14.75052642822266 18.41556930541992 10.82342529296875 22.27735137939453 8.104949951171875 26.54277038574219 C 5.39312744140625 30.79777145385742 4.012046813964844 35.2835693359375 4.000068664550781 39.8756103515625 C 3.991226196289063 43.26423263549805 4.736808776855469 46.61859130859375 6.216049194335938 49.84553146362305 C 7.685287475585938 53.05059051513672 9.866264343261719 56.11547088623047 12.69842529296875 58.95503234863281 C 17.59830474853516 63.86769104003906 24.34671020507813 67.97977447509766 32.21406555175781 70.84671020507813 C 36.26882934570313 72.32429504394531 40.59786987304688 73.46501159667969 45.08094787597656 74.23715209960938 C 49.71718597412109 75.03569030761719 54.52540588378906 75.44057464599609 59.37202835083008 75.44057464599609 C 59.44116592407227 75.44057464599609 59.51532745361328 75.44049072265625 59.58476638793945 75.44033050537109 C 67.27809143066406 75.42165374755859 74.73497009277344 74.40357208251953 81.74826812744141 72.41432952880859 C 88.46120452880859 70.51029205322266 94.47378540039063 67.80577087402344 99.61896514892578 64.37586975097656 C 104.6456069946289 61.02503204345703 108.5727081298828 57.16325378417969 111.2911682128906 52.89781188964844 C 114.0029907226563 48.64282989501953 115.3840484619141 44.15701293945313 115.3960266113281 39.56497192382813 C 115.4048690795898 36.17634963989258 114.659309387207 32.82199096679688 113.1800689697266 29.59506988525391 C 111.7108306884766 26.39001083374023 109.5298690795898 23.32513046264648 106.6977081298828 20.48557281494141 C 101.7978286743164 15.57291030883789 95.04944610595703 11.46080780029297 87.18206787109375 8.593887329101563 C 83.12730407714844 7.116294860839844 78.79824829101563 5.975593566894531 74.31517028808594 5.20343017578125 C 69.67892456054688 4.404891967773438 64.87071228027344 4.000007629394531 60.02406692504883 4.000007629394531 M 60.02406692504883 0 C 92.89424896240234 0 119.4531173706055 17.68687057495117 119.3960037231445 39.57541275024414 C 119.3388290405273 61.51219177246094 92.56476593017578 79.36031341552734 59.59446716308594 79.4403076171875 C 59.52202224731445 79.44049072265625 59.44440841674805 79.44058227539063 59.37202453613281 79.44058227539063 C 26.50188446044922 79.44058227539063 -0.05698394775390625 61.75373077392578 8.392333984375e-05 39.86516952514648 C 0.05730438232421875 17.92840957641602 26.83136749267578 0.080291748046875 59.80162811279297 0.000274658203125 C 59.87407302856445 9.1552734375e-05 59.95168685913086 0 60.02406692504883 0 Z"
                        stroke="none" fill="#fff" />
                </g>
            </g>
            <path id="Path_20" data-name="Path 20"
                d="M40.958,4.022A26.471,26.471,0,0,0,42.426,0S23.895,20.879,18.193,31c0,0-8.423,11.034-12.845,28.543C.988,76.8-.374,100.5.084,109.62a51.074,51.074,0,0,0,7.57,21.645c5.693,8.618,24.494,27.267,24.494,27.267s-14.171-41.816-16.79-44.916c-2.742-3.246-4.673-2.714-3.693-2.714a9.626,9.626,0,0,1,7.488,3.812c2.991,3.651,14.886,37.648,14.886,44.016,0,0,6.129-3.191,7.177-3.695s10.953-7.754,10.953-7.754l7.436-7.389,7.287-9.925s3.877-7.276,5.115-11.951.69-4.092,1.408-6.923a45.833,45.833,0,0,0,.956-6.977s2.622,5.551,0,15.7-2.938,11.465-4.73,14.076-7.575,13.168-9.241,14.576-1.662,2.95-7.5,6.565-17.545,7.741-17.545,7.741C57.2,159.248,84.18,127.646,87.28,118.9A44.362,44.362,0,0,0,90.1,102.946a133.669,133.669,0,0,0-3.869-18.9C83.882,75.778,79.443,69.284,73.9,59.8L58.111,35.751l-4.048-9.167s-3.013-7.444-3.142-7.948A81.76,81.76,0,0,1,49.37,9.159c-.259-3.5,1.309-8.291,1.309-8.291a23.468,23.468,0,0,0-3.391,8.291,43.654,43.654,0,0,0,.245,9.972s.5,2.571,3.249,8.245,4.436,7.1,4.73,9.1S52.5,34.6,52.5,34.6,36.483,13.286,40.958,4.022Z"
                transform="matrix(0.995, -0.105, 0.105, 0.995, 180.753, 229.315)" fill="#fff" stroke="#fff"
                stroke-width="1" />
        </g>
    </g>
</svg>